<?xml version="1.0" encoding="UTF-8"?>
<svg width="150px" height="30px" viewBox="0 0 150 30" version="1.1" xmlns="http://www.w3.org/2000/svg" xmlns:xlink="http://www.w3.org/1999/xlink">
    <title>34B461FA-D901-431B-BD88-D5615252AB15</title>
    <g id="pages" stroke="none" stroke-width="1" fill="none" fill-rule="evenodd">
        <g id="Sign-up---banner-1200" transform="translate(-30.000000, -30.000000)" fill="#3978FC">
            <path d="M58.9490866,50 C59.5013713,50 59.9490866,50.4477153 59.9490866,51 L59.9490866,59 C59.9490866,59.5522847 59.5013713,60 58.9490866,60 L50.9660577,60 C50.413773,60 49.9660577,59.5522847 49.9660577,59 L49.9660577,51 C49.9660577,50.4477153 50.413773,50 50.9660577,50 L58.9490866,50 Z M36.4872716,50 C37.0395564,50 37.4872716,50.4477153 37.4872716,51 L37.4872716,56.5 C37.4872716,57.0522847 37.0395564,57.5 36.4872716,57.5 L31,57.5 C30.4477153,57.5 30,57.0522847 30,56.5 L30,51 C30,50.4477153 30.4477153,50 31,50 L36.4872716,50 Z M46.4703005,50 C47.0225852,50 47.4703005,50.4477153 47.4703005,51 L47.4703005,56.5 C47.4703005,57.0522847 47.0225852,57.5 46.4703005,57.5 L40.9830289,57.5 C40.4307441,57.5 39.9830289,57.0522847 39.9830289,56.5 L39.9830289,51 C39.9830289,50.4477153 40.4307441,50 40.9830289,50 L46.4703005,50 Z M72.8870919,38.11 C73.655789,38.11 74.3770556,38.2549986 75.0509134,38.545 C75.7247713,38.8350015 76.3137641,39.2324975 76.8179096,39.7375 C77.322055,40.2425025 77.7188765,40.8324966 78.0083857,41.5075 C78.297895,42.1825034 78.4426475,42.9049962 78.4426475,43.675 C78.4426475,44.3150032 78.3403225,44.9199972 78.1356694,45.49 C77.9310162,46.0600029 77.65399,46.5799977 77.3045822,47.05 L78.2180294,47.965 L77.1847859,49 L76.2713387,48.085 C75.7921509,48.4450018 75.2680472,48.727499 74.6990117,48.9325 C74.1299762,49.137501 73.526009,49.24 72.8870919,49.24 C72.1183949,49.24 71.3971283,49.0950015 70.7232704,48.805 C70.0494126,48.5149986 69.4604198,48.1175025 68.9562743,47.6125 C68.4521289,47.1074975 68.0553074,46.5175034 67.7657981,45.8425 C67.4762889,45.1674966 67.3315364,44.4450039 67.3315364,43.675 C67.3315364,42.9049962 67.4762889,42.1825034 67.7657981,41.5075 C68.0553074,40.8324966 68.4521289,40.2425025 68.9562743,39.7375 C69.4604198,39.2324975 70.0494126,38.8350015 70.7232704,38.545 C71.3971283,38.2549986 72.1183949,38.11 72.8870919,38.11 Z M84.7918538,38.35 L84.7918538,44.77 C84.7918538,45.1800021 84.8692215,45.5649982 85.0239593,45.925 C85.178697,46.2850018 85.3908342,46.5999987 85.6603774,46.87 C85.9299205,47.1400014 86.2443827,47.3524992 86.6037736,47.5075 C86.9631644,47.6625008 87.3475072,47.74 87.7568134,47.74 C88.1661196,47.74 88.5504624,47.6625008 88.9098532,47.5075 C89.2692441,47.3524992 89.5837063,47.1400014 89.8532495,46.87 C90.1227926,46.5999987 90.3349298,46.2850018 90.4896676,45.925 C90.6444053,45.5649982 90.721773,45.1800021 90.721773,44.77 L90.721773,38.35 L92.2192273,38.35 L92.2192273,44.77 C92.2192273,45.3900031 92.1019279,45.9699973 91.8673255,46.51 C91.6327232,47.0500027 91.3132695,47.522498 90.9089548,47.9275 C90.5046401,48.332502 90.030451,48.6524988 89.4863732,48.8875 C88.9422954,49.1225012 88.3657812,49.24 87.7568134,49.24 C87.1378625,49.24 86.5588527,49.1225012 86.0197664,48.8875 C85.4806801,48.6524988 85.0089867,48.332502 84.6046721,47.9275 C84.2003574,47.522498 83.8809036,47.0500027 83.6463013,46.51 C83.4116989,45.9699973 83.2943995,45.3900031 83.2943995,44.77 L83.2943995,38.35 L84.7918538,38.35 Z M109.799341,38.11 C110.558055,38.11 111.264347,38.2499986 111.918239,38.53 C112.572131,38.8100014 113.153636,39.1949976 113.662773,39.685 L112.614555,40.75 C112.245181,40.3999983 111.820907,40.122501 111.341719,39.9175 C110.862531,39.712499 110.34841,39.61 109.799341,39.61 C109.240289,39.61 108.713689,39.7174989 108.219527,39.9325 C107.725364,40.1475011 107.293603,40.4374982 106.924229,40.8025 C106.554855,41.1675018 106.26535,41.5974975 106.055705,42.0925 C105.846061,42.5875025 105.74124,43.1149972 105.74124,43.675 C105.74124,44.2350028 105.846061,44.7624975 106.055705,45.2575 C106.26535,45.7525025 106.554855,46.1849982 106.924229,46.555 C107.293603,46.9250019 107.725364,47.214999 108.219527,47.425 C108.713689,47.6350011 109.240289,47.74 109.799341,47.74 C110.34841,47.74 110.862531,47.637501 111.341719,47.4325 C111.820907,47.227499 112.245181,46.9500018 112.614555,46.6 L113.662773,47.665 C113.153636,48.1550025 112.569635,48.5399986 111.910752,48.82 C111.251869,49.1000014 110.548072,49.24 109.799341,49.24 C109.030644,49.24 108.309377,49.0950015 107.63552,48.805 C106.961662,48.5149986 106.372669,48.1175025 105.868524,47.6125 C105.364378,47.1074975 104.967557,46.5175034 104.678047,45.8425 C104.388538,45.1674966 104.243786,44.4450039 104.243786,43.675 C104.243786,42.9049962 104.388538,42.1825034 104.678047,41.5075 C104.967557,40.8324966 105.364378,40.2425025 105.868524,39.7375 C106.372669,39.2324975 106.961662,38.8350015 107.63552,38.545 C108.309377,38.2549986 109.030644,38.11 109.799341,38.11 Z M161.940701,38.11 C162.709398,38.11 163.430664,38.2549986 164.104522,38.545 C164.77838,38.8350015 165.367373,39.2324975 165.871518,39.7375 C166.375664,40.2425025 166.772485,40.8324966 167.061995,41.5075 C167.351504,42.1825034 167.496256,42.9049962 167.496256,43.675 C167.496256,44.4450039 167.351504,45.1674966 167.061995,45.8425 C166.772485,46.5175034 166.375664,47.1074975 165.871518,47.6125 C165.367373,48.1175025 164.77838,48.5149986 164.104522,48.805 C163.430664,49.0950015 162.709398,49.24 161.940701,49.24 C161.172004,49.24 160.450737,49.0950015 159.776879,48.805 C159.103021,48.5149986 158.514029,48.1175025 158.009883,47.6125 C157.505738,47.1074975 157.108916,46.5175034 156.819407,45.8425 C156.529898,45.1674966 156.385145,44.4450039 156.385145,43.675 C156.385145,42.9049962 156.529898,42.1825034 156.819407,41.5075 C157.108916,40.8324966 157.505738,40.2425025 158.009883,39.7375 C158.514029,39.2324975 159.103021,38.8350015 159.776879,38.545 C160.450737,38.2549986 161.172004,38.11 161.940701,38.11 Z M99.2572627,38.35 L99.2572627,49 L97.7598083,49 L97.7598083,38.35 L99.2572627,38.35 Z M119.892183,38.35 L119.892183,43.225 L124.669063,38.35 L126.765499,38.35 L122.362983,42.85 L126.765499,49 L124.908655,49 L121.314765,43.93 L119.892183,45.385 L119.892183,49 L118.394729,49 L118.394729,38.35 L119.892183,38.35 Z M136.55885,38.35 C136.978139,38.35 137.372465,38.4299992 137.741839,38.59 C138.111213,38.7500008 138.433162,38.9674986 138.707697,39.2425 C138.982232,39.5175014 139.19936,39.8399982 139.35909,40.21 C139.518819,40.5800019 139.598682,40.9749979 139.598682,41.395 C139.598682,41.785002 139.528802,42.1524983 139.389039,42.4975 C139.249276,42.8425017 139.0596,43.1499987 138.820006,43.42 C139.239295,43.6900014 139.576219,44.0474978 139.830788,44.4925 C140.085356,44.9375022 140.212639,45.4299973 140.212639,45.97 C140.212639,46.3900021 140.132775,46.7849982 139.973046,47.155 C139.813317,47.5250019 139.596188,47.8449987 139.321653,48.115 C139.047119,48.3850014 138.725169,48.5999992 138.355795,48.76 C137.986421,48.9200008 137.592096,49 137.172806,49 L131.212938,49 L131.212938,38.35 L136.55885,38.35 Z M146.71159,38.35 L146.71159,47.5 L153.000898,47.5 L153.000898,49 L145.214136,49 L145.214136,38.35 L146.71159,38.35 Z M172.692423,38.35 L175.447739,42.37 L178.203055,38.35 L180,38.35 L176.346211,43.675 L180,49 L178.203055,49 L175.447739,44.995 L172.692423,49 L170.895478,49 L174.549266,43.675 L170.895478,38.35 L172.692423,38.35 Z M72.8870919,39.61 C72.3280395,39.61 71.80144,39.7174989 71.3072776,39.9325 C70.8131152,40.1475011 70.3813535,40.4374982 70.0119796,40.8025 C69.6426057,41.1675018 69.3531008,41.5974975 69.1434561,42.0925 C68.9338115,42.5875025 68.8289907,43.1149972 68.8289907,43.675 C68.8289907,44.2350028 68.9338115,44.7624975 69.1434561,45.2575 C69.3531008,45.7525025 69.6426057,46.1849982 70.0119796,46.555 C70.3813535,46.9250019 70.8131152,47.214999 71.3072776,47.425 C71.80144,47.6350011 72.3280395,47.74 72.8870919,47.74 C73.3163643,47.74 73.7256644,47.6775006 74.1150045,47.5525 C74.5043446,47.4274994 74.86373,47.2500012 75.1931716,47.02 L74.294699,46.105 L75.312968,45.07 L76.2264151,45.985 C76.4560259,45.6649984 76.6332229,45.310002 76.7580114,44.92 C76.8827999,44.5299981 76.9451932,44.1150022 76.9451932,43.675 C76.9451932,43.1149972 76.8378767,42.5875025 76.6232405,42.0925 C76.4086043,41.5974975 76.1190994,41.1675018 75.754717,40.8025 C75.3903346,40.4374982 74.9610687,40.1475011 74.4669063,39.9325 C73.9727439,39.7174989 73.4461444,39.61 72.8870919,39.61 Z M161.940701,39.61 C161.381648,39.61 160.855049,39.7174989 160.360886,39.9325 C159.866724,40.1475011 159.434962,40.4374982 159.065588,40.8025 C158.696215,41.1675018 158.40671,41.5974975 158.197065,42.0925 C157.98742,42.5875025 157.8826,43.1149972 157.8826,43.675 C157.8826,44.2350028 157.98742,44.7624975 158.197065,45.2575 C158.40671,45.7525025 158.696215,46.1849982 159.065588,46.555 C159.434962,46.9250019 159.866724,47.214999 160.360886,47.425 C160.855049,47.6350011 161.381648,47.74 161.940701,47.74 C162.499753,47.74 163.026353,47.6350011 163.520515,47.425 C164.014678,47.214999 164.443943,46.9250019 164.808326,46.555 C165.172708,46.1849982 165.462213,45.7525025 165.676849,45.2575 C165.891486,44.7624975 165.998802,44.2350028 165.998802,43.675 C165.998802,43.1149972 165.891486,42.5875025 165.676849,42.0925 C165.462213,41.5974975 165.172708,41.1675018 164.808326,40.8025 C164.443943,40.4374982 164.014678,40.1475011 163.520515,39.9325 C163.026353,39.7174989 162.499753,39.61 161.940701,39.61 Z M56.4533293,40 C57.0056141,40 57.4533293,40.4477153 57.4533293,41 L57.4533293,46.5 C57.4533293,47.0522847 57.0056141,47.5 56.4533293,47.5 L50.9660577,47.5 C50.413773,47.5 49.9660577,47.0522847 49.9660577,46.5 L49.9660577,41 C49.9660577,40.4477153 50.413773,40 50.9660577,40 L56.4533293,40 Z M36.4872716,40 C37.0395564,40 37.4872716,40.4477153 37.4872716,41 L37.4872716,46.5 C37.4872716,47.0522847 37.0395564,47.5 36.4872716,47.5 L31,47.5 C30.4477153,47.5 30,47.0522847 30,46.5 L30,41 C30,40.4477153 30.4477153,40 31,40 L36.4872716,40 Z M137.172806,44.425 L132.710392,44.425 L132.710392,47.5 L137.172806,47.5 C137.382451,47.5 137.582109,47.4600004 137.771788,47.38 C137.961466,47.2999996 138.126185,47.1925007 138.265948,47.0575 C138.405711,46.9224993 138.515523,46.760001 138.595388,46.57 C138.675252,46.3799991 138.715184,46.1800011 138.715184,45.97 C138.715184,45.759999 138.675252,45.560001 138.595388,45.37 C138.515523,45.1799991 138.405711,45.0150007 138.265948,44.875 C138.126185,44.7349993 137.961466,44.6250004 137.771788,44.545 C137.582109,44.4649996 137.382451,44.425 137.172806,44.425 Z M136.55885,39.85 L132.710392,39.85 L132.710392,42.925 L136.55885,42.925 C136.768495,42.925 136.968153,42.8850004 137.157832,42.805 C137.34751,42.7249996 137.512229,42.6175007 137.651992,42.4825 C137.791755,42.3474993 137.901567,42.185001 137.981432,41.995 C138.061296,41.8049991 138.101228,41.6050011 138.101228,41.395 C138.101228,41.184999 138.061296,40.985001 137.981432,40.795 C137.901567,40.6049991 137.791755,40.4400007 137.651992,40.3 C137.512229,40.1599993 137.34751,40.0500004 137.157832,39.97 C136.968153,39.8899996 136.768495,39.85 136.55885,39.85 Z M56.4533293,30 C57.0056141,30 57.4533293,30.4477153 57.4533293,31 L57.4533293,36.5 C57.4533293,37.0522847 57.0056141,37.5 56.4533293,37.5 L50.9660577,37.5 C50.413773,37.5 49.9660577,37.0522847 49.9660577,36.5 L49.9660577,31 C49.9660577,30.4477153 50.413773,30 50.9660577,30 L56.4533293,30 Z M46.4703005,30 C47.0225852,30 47.4703005,30.4477153 47.4703005,31 L47.4703005,36.5 C47.4703005,37.0522847 47.0225852,37.5 46.4703005,37.5 L40.9830289,37.5 C40.4307441,37.5 39.9830289,37.0522847 39.9830289,36.5 L39.9830289,31 C39.9830289,30.4477153 40.4307441,30 40.9830289,30 L46.4703005,30 Z M36.4872716,30 C37.0395564,30 37.4872716,30.4477153 37.4872716,31 L37.4872716,36.5 C37.4872716,37.0522847 37.0395564,37.5 36.4872716,37.5 L31,37.5 C30.4477153,37.5 30,37.0522847 30,36.5 L30,31 C30,30.4477153 30.4477153,30 31,30 L36.4872716,30 Z" id="qb-logo-copy"></path>
        </g>
    </g>
</svg>